<?xml version="1.0" encoding="UTF-8"?>
<svg id="_レイヤー_1" xmlns="http://www.w3.org/2000/svg" version="1.1" xmlns:xlink="http://www.w3.org/1999/xlink" viewBox="0 0 1000 1000">
  <!-- Generator: Adobe Illustrator 29.8.5, SVG Export Plug-In . SVG Version: 2.1.1 Build 2)  -->
  <defs>
    <style>
      .st0 {
        fill: url(#_名称未設定グラデーション);
      }
    </style>
    <linearGradient id="_名称未設定グラデーション" data-name="名称未設定グラデーション" x1="108.43" y1="500" x2="891.57" y2="500" gradientTransform="translate(0 1000) scale(1 -1)" gradientUnits="userSpaceOnUse">
      <stop offset="0" stop-color="#d52034"/>
      <stop offset=".16" stop-color="#d72534"/>
      <stop offset=".37" stop-color="#dd3636"/>
      <stop offset=".6" stop-color="#e75139"/>
      <stop offset=".85" stop-color="#f5763d"/>
      <stop offset="1" stop-color="#ff9040"/>
    </linearGradient>
  </defs>
  <path class="st0" d="M371.9,499.8h23.05v141.86h-23.05v-141.86ZM606.85,641.87h23.05v-141.86h-23.05v141.86ZM881.13,691.27c-11.71-.42-19.67-.69-28.42-1.67-6.55-.74-14.32-1.6-24.37-4.34-15.11-4.12-23.07-9.11-24.91-10.31-2.97-1.9-6.07-3.91-9.59-7.44-1.64-1.66-9.2-9.49-12.73-22.2-.43-1.54-.71-2.84-.88-3.66-6.82-89.45-13.62-178.9-20.44-268.34-.36-5.03-.48-9.53-.49-13.34,0-4.43.17-7.71.5-14.29.1-2.03.26-4.5.68-7.71.03-.17.04-.33.06-.45.63-4.58.99-7.19,2.31-10.51.95-2.41,2.42-6.03,5.91-9.13,1.56-1.38,3.06-2.25,3.92-2.75,2.77-1.6,5.12-2.28,7.27-2.9,2.96-.84,5.19-1.15,8.17-1.57,2.81-.39,4.95-.55,7.48-.75,2.91-.22,5.38-.33,7.19-.4,4.3-.06,8.59-.1,12.89-.16v-29.93c-48.7.03-97.45.03-146.27,0h-.04c-56.46,15.34-112.91,30.68-169.37,46.02h0c-56.46-15.34-112.91-30.68-169.37-46.02h-.04c-48.8.03-97.57.03-146.27,0v29.93c4.3.06,8.59.1,12.89.16,1.82.06,4.27.17,7.19.4,2.54.19,4.67.35,7.48.75,2.98.42,5.22.72,8.17,1.57,2.16.62,4.5,1.3,7.27,2.9.88.5,2.36,1.37,3.92,2.75,3.49,3.1,4.97,6.73,5.91,9.13,1.31,3.32,1.67,5.93,2.31,10.51.01.13.04.27.06.45.42,3.23.58,5.7.68,7.71.35,6.57.52,9.86.5,14.29,0,3.81-.13,8.3-.49,13.34-6.82,89.45-13.62,178.9-20.44,268.34-.16.82-.45,2.12-.88,3.66-3.55,12.73-11.09,20.55-12.73,22.2-3.52,3.53-6.63,5.54-9.59,7.44-1.86,1.2-9.8,6.19-24.91,10.31-10.05,2.74-17.81,3.6-24.37,4.34-8.77.98-16.71,1.25-28.42,1.67-4.4.16-8.03.25-10.47.29v29.04h274.73c0-9.78-.01-19.55-.03-29.33l-70.63-.22s-5.1-.17-9.29-.58c-1.64-.16-6.36-.69-12.26-2.21-3.49-.89-5.23-1.34-7.51-2.34-1.9-.84-6.57-2.91-10.89-7.51-3.89-4.15-5.57-8.32-6.79-11.43-1.8-4.61-2.29-8.2-3.24-15.25-.17-1.28-.74-5.68-.98-11.55-.17-4.22-.12-7.89,0-10.86,6.79-84.81,13.58-169.61,20.39-254.43h2.97c6.79,29.25,13.58,58.52,20.39,87.78,64.91.04,129.8.09,194.71.13h0c64.91-.04,129.8-.09,194.71-.13,6.79-29.25,13.58-58.52,20.39-87.78h2.97c6.79,84.81,13.58,169.61,20.39,254.43.12,2.96.17,6.63,0,10.86-.25,5.85-.81,10.27-.98,11.55-.95,7.05-1.43,10.64-3.24,15.25-1.23,3.13-2.9,7.28-6.79,11.43-4.31,4.6-8.97,6.68-10.89,7.51-2.28.99-4.02,1.44-7.51,2.34-5.9,1.51-10.61,2.03-12.26,2.21-4.18.42-9.29.58-9.29.58l-70.63.22c0,9.78-.01,19.55-.03,29.33h274.73v-29.04c-2.44-.04-6.07-.13-10.47-.29h.03Z"/>
</svg>